<svg xmlns="http://www.w3.org/2000/svg" viewBox="0 0 900 620" width="900" height="620" style="background:#f8f9fa;font-family:monospace">

  <!-- Title block -->
  <rect x="0" y="0" width="900" height="620" fill="#f8f9fa" stroke="#333" stroke-width="1"/>
  <rect x="600" y="540" width="290" height="70" fill="white" stroke="#333" stroke-width="1"/>
  <text x="745" y="558" text-anchor="middle" font-size="11" font-weight="bold" fill="#333">VADODARA REFINERY</text>
  <text x="745" y="572" text-anchor="middle" font-size="10" fill="#333">CRUDE DISTILLATION UNIT — CDU</text>
  <text x="745" y="585" text-anchor="middle" font-size="9" fill="#333">P&ID No: CDU-PID-001-REV3</text>
  <text x="745" y="598" text-anchor="middle" font-size="9" fill="#333">Unit 3 — Pump Circuit</text>

  <!-- FEED TANK T-100 -->
  <rect x="30" y="120" width="70" height="100" fill="white" stroke="#333" stroke-width="2" rx="4"/>
  <rect x="30" y="120" width="70" height="15" fill="#ddd" stroke="#333" stroke-width="1"/>
  <text x="65" y="131" text-anchor="middle" font-size="9" font-weight="bold" fill="#333">T-100</text>
  <text x="65" y="175" text-anchor="middle" font-size="8" fill="#333">CRUDE</text>
  <text x="65" y="187" text-anchor="middle" font-size="8" fill="#333">FEED</text>
  <text x="65" y="199" text-anchor="middle" font-size="8" fill="#333">TANK</text>
  <!-- Level instrument -->
  <circle cx="110" cy="145" r="10" fill="white" stroke="#333" stroke-width="1.5"/>
  <text x="110" y="149" text-anchor="middle" font-size="8" font-weight="bold" fill="#333">LI</text>
  <text x="124" y="149" font-size="7" fill="#333">101</text>

  <!-- P-101A PUMP -->
  <!-- Pump body circle -->
  <circle cx="240" cy="310" r="28" fill="white" stroke="#333" stroke-width="2"/>
  <line x1="219" y1="289" x2="261" y2="331" stroke="#333" stroke-width="1.5"/>
  <line x1="261" y1="289" x2="219" y2="331" stroke="#333" stroke-width="1.5"/>
  <!-- Motor rectangle -->
  <rect x="256" y="297" width="34" height="26" fill="#eee" stroke="#333" stroke-width="1.5" rx="3"/>
  <text x="273" y="314" text-anchor="middle" font-size="8" font-weight="bold" fill="#333">M</text>
  <text x="240" y="352" text-anchor="middle" font-size="9" font-weight="bold" fill="#0066cc">P-101A</text>
  <text x="240" y="363" text-anchor="middle" font-size="7" fill="#333">315kW / 6.6kV</text>

  <!-- P-101B PUMP (standby) -->
  <circle cx="240" cy="430" r="28" fill="white" stroke="#333" stroke-width="2" stroke-dasharray="6,3"/>
  <line x1="219" y1="409" x2="261" y2="451" stroke="#333" stroke-width="1.5"/>
  <line x1="261" y1="409" x2="219" y2="451" stroke="#333" stroke-width="1.5"/>
  <rect x="256" y="417" width="34" height="26" fill="#eee" stroke="#333" stroke-width="1.5" rx="3"/>
  <text x="273" y="434" text-anchor="middle" font-size="8" font-weight="bold" fill="#333">M</text>
  <text x="240" y="472" text-anchor="middle" font-size="9" font-weight="bold" fill="#0066cc">P-101B</text>
  <text x="240" y="483" text-anchor="middle" font-size="7" fill="#666">STANDBY</text>

  <!-- HEAT EXCHANGER E-101 -->
  <rect x="390" y="255" width="90" height="50" fill="white" stroke="#333" stroke-width="2" rx="25"/>
  <line x1="390" y1="280" x2="480" y2="280" stroke="#333" stroke-width="1"/>
  <!-- Tubes symbol -->
  <ellipse cx="420" cy="268" rx="12" ry="8" fill="none" stroke="#333" stroke-width="1.5"/>
  <ellipse cx="450" cy="268" rx="12" ry="8" fill="none" stroke="#333" stroke-width="1.5"/>
  <ellipse cx="420" cy="292" rx="12" ry="8" fill="none" stroke="#333" stroke-width="1.5"/>
  <ellipse cx="450" cy="292" rx="12" ry="8" fill="none" stroke="#333" stroke-width="1.5"/>
  <text x="435" y="320" text-anchor="middle" font-size="9" font-weight="bold" fill="#0066cc">E-101</text>
  <text x="435" y="331" text-anchor="middle" font-size="7" fill="#333">CRUDE PRE-HEATER</text>

  <!-- DISTILLATION COLUMN T-101 -->
  <rect x="590" y="100" width="60" height="280" fill="white" stroke="#333" stroke-width="2" rx="8"/>
  <!-- Trays -->
  <line x1="590" y1="160" x2="650" y2="160" stroke="#333" stroke-width="1" stroke-dasharray="4,2"/>
  <line x1="590" y1="200" x2="650" y2="200" stroke="#333" stroke-width="1" stroke-dasharray="4,2"/>
  <line x1="590" y1="240" x2="650" y2="240" stroke="#333" stroke-width="1" stroke-dasharray="4,2"/>
  <line x1="590" y1="280" x2="650" y2="280" stroke="#333" stroke-width="1" stroke-dasharray="4,2"/>
  <line x1="590" y1="320" x2="650" y2="320" stroke="#333" stroke-width="1" stroke-dasharray="4,2"/>
  <text x="620" y="135" text-anchor="middle" font-size="9" font-weight="bold" fill="#0066cc">T-101</text>
  <text x="620" y="147" text-anchor="middle" font-size="7" fill="#333">ATM. DIST.</text>
  <text x="620" y="157" text-anchor="middle" font-size="7" fill="#333">COLUMN</text>

  <!-- NAPHTHA PRODUCT P-104 -->
  <circle cx="760" cy="155" r="22" fill="white" stroke="#333" stroke-width="2"/>
  <line x1="742" y1="137" x2="778" y2="173" stroke="#333" stroke-width="1.5"/>
  <line x1="778" y1="137" x2="742" y2="173" stroke="#333" stroke-width="1.5"/>
  <rect x="773" y="144" width="28" height="22" fill="#eee" stroke="#333" stroke-width="1.5" rx="2"/>
  <text x="786" y="159" text-anchor="middle" font-size="7" font-weight="bold" fill="#333">M</text>
  <text x="760" y="193" text-anchor="middle" font-size="9" font-weight="bold" fill="#0066cc">P-104A</text>
  <text x="760" y="204" text-anchor="middle" font-size="7" fill="#333">NAPHTHA REFLUX</text>

  <!-- KEROSENE PUMP P-103 -->
  <circle cx="760" cy="280" r="22" fill="white" stroke="#333" stroke-width="2"/>
  <line x1="742" y1="262" x2="778" y2="298" stroke="#333" stroke-width="1.5"/>
  <line x1="778" y1="262" x2="742" y2="298" stroke="#333" stroke-width="1.5"/>
  <rect x="773" y="269" width="28" height="22" fill="#eee" stroke="#333" stroke-width="1.5" rx="2"/>
  <text x="786" y="284" text-anchor="middle" font-size="7" font-weight="bold" fill="#333">M</text>
  <text x="760" y="318" text-anchor="middle" font-size="9" font-weight="bold" fill="#0066cc">P-103A</text>
  <text x="760" y="329" text-anchor="middle" font-size="7" fill="#333">KEROSENE PUMP</text>

  <!-- ATM RESIDUE PUMP P-102 -->
  <circle cx="760" cy="400" r="22" fill="white" stroke="#333" stroke-width="2"/>
  <line x1="742" y1="382" x2="778" y2="418" stroke="#333" stroke-width="1.5"/>
  <line x1="778" y1="382" x2="742" y2="418" stroke="#333" stroke-width="1.5"/>
  <rect x="773" y="389" width="28" height="22" fill="#eee" stroke="#333" stroke-width="1.5" rx="2"/>
  <text x="786" y="404" text-anchor="middle" font-size="7" font-weight="bold" fill="#333">M</text>
  <text x="760" y="438" text-anchor="middle" font-size="9" font-weight="bold" fill="#0066cc">P-102A</text>
  <text x="760" y="449" text-anchor="middle" font-size="7" fill="#333">ATM RESIDUE</text>

  <!-- INSTRUMENTS on P-101A -->
  <!-- PI suction -->
  <circle cx="165" cy="310" r="10" fill="white" stroke="#333" stroke-width="1.5"/>
  <text x="165" y="314" text-anchor="middle" font-size="8" font-weight="bold" fill="#333">PI</text>
  <text x="152" y="297" font-size="7" fill="#333">101</text>
  <!-- PI discharge -->
  <circle cx="330" cy="280" r="10" fill="white" stroke="#333" stroke-width="1.5"/>
  <text x="330" y="284" text-anchor="middle" font-size="8" font-weight="bold" fill="#333">PI</text>
  <text x="317" y="267" font-size="7" fill="#333">102</text>
  <!-- FI seal flush -->
  <circle cx="295" cy="350" r="10" fill="white" stroke="#333" stroke-width="1.5"/>
  <text x="295" y="354" text-anchor="middle" font-size="8" font-weight="bold" fill="#333">FI</text>
  <text x="282" y="337" font-size="7" fill="#333">101</text>
  <!-- TI bearing -->
  <circle cx="200" cy="260" r="10" fill="white" stroke="#333" stroke-width="1.5"/>
  <text x="200" y="264" text-anchor="middle" font-size="8" font-weight="bold" fill="#333">TI</text>
  <text x="187" y="247" font-size="7" fill="#333">101</text>
  <!-- AI motor current -->
  <circle cx="310" cy="310" r="10" fill="white" stroke="#333" stroke-width="1.5"/>
  <text x="310" y="314" text-anchor="middle" font-size="8" font-weight="bold" fill="#333">AI</text>
  <text x="297" y="297" font-size="7" fill="#333">101</text>
  <!-- H2S detector -->
  <rect x="185" y="380" width="32" height="20" fill="#ffeeee" stroke="#cc0000" stroke-width="1.5" rx="3"/>
  <text x="201" y="394" text-anchor="middle" font-size="8" font-weight="bold" fill="#cc0000">H2S</text>
  <text x="185" y="414" font-size="7" fill="#cc0000">AE-H2S</text>
  <text x="185" y="424" font-size="7" fill="#cc0000">101</text>

  <!-- INSTRUMENTS on E-101 -->
  <circle cx="435" cy="235" r="10" fill="white" stroke="#333" stroke-width="1.5"/>
  <text x="435" y="239" text-anchor="middle" font-size="8" font-weight="bold" fill="#333">TI</text>
  <text x="422" y="222" font-size="7" fill="#333">201</text>
  <circle cx="480" cy="255" r="10" fill="white" stroke="#333" stroke-width="1.5"/>
  <text x="480" y="259" text-anchor="middle" font-size="8" font-weight="bold" fill="#333">PI</text>
  <text x="467" y="242" font-size="7" fill="#333">201</text>

  <!-- CONTROL VALVES -->
  <!-- FCV on P-101A discharge -->
  <polygon points="345,270 365,280 345,290 325,280" fill="white" stroke="#333" stroke-width="2"/>
  <line x1="345" y1="262" x2="345" y2="270" stroke="#333" stroke-width="1.5"/>
  <circle cx="345" cy="258" r="6" fill="white" stroke="#333" stroke-width="1.5"/>
  <text x="345" y="248" text-anchor="middle" font-size="7" fill="#333">FCV</text>
  <text x="345" y="238" text-anchor="middle" font-size="7" fill="#333">101</text>

  <!-- SDV emergency shutdown -->
  <polygon points="150,300 170,310 150,320 130,310" fill="#ffcccc" stroke="#cc0000" stroke-width="2"/>
  <line x1="150" y1="292" x2="150" y2="300" stroke="#cc0000" stroke-width="1.5"/>
  <circle cx="150" cy="288" r="6" fill="#ffcccc" stroke="#cc0000" stroke-width="1.5"/>
  <text x="150" y="278" text-anchor="middle" font-size="7" fill="#cc0000">SDV</text>
  <text x="150" y="268" text-anchor="middle" font-size="7" fill="#cc0000">101</text>

  <!-- PROCESS LINES -->
  <!-- Feed tank to suction of P-101A -->
  <line x1="100" y1="200" x2="100" y2="310" stroke="#333" stroke-width="3"/>
  <line x1="100" y1="310" x2="130" y2="310" stroke="#333" stroke-width="3"/>
  <line x1="170" y1="310" x2="212" y2="310" stroke="#333" stroke-width="3"/>

  <!-- P-101A discharge to E-101 -->
  <line x1="268" y1="295" x2="325" y2="280" stroke="#333" stroke-width="3"/>
  <line x1="365" y1="280" x2="390" y2="280" stroke="#333" stroke-width="3"/>

  <!-- E-101 to T-101 -->
  <line x1="480" y1="280" x2="590" y2="240" stroke="#333" stroke-width="3"/>

  <!-- T-101 products -->
  <!-- Naphtha overhead -->
  <line x1="650" y1="130" x2="738" y2="155" stroke="#333" stroke-width="2.5"/>
  <!-- Kerosene side draw -->
  <line x1="650" y1="230" x2="738" y2="280" stroke="#333" stroke-width="2.5"/>
  <!-- Atm residue bottom -->
  <line x1="650" y1="350" x2="738" y2="400" stroke="#333" stroke-width="2.5"/>

  <!-- P-101B suction (standby) -->
  <line x1="100" y1="310" x2="100" y2="430" stroke="#333" stroke-width="2" stroke-dasharray="8,4"/>
  <line x1="100" y1="430" x2="212" y2="430" stroke="#333" stroke-width="2" stroke-dasharray="8,4"/>
  <!-- P-101B discharge -->
  <line x1="268" y1="415" x2="300" y2="390" stroke="#333" stroke-width="2" stroke-dasharray="8,4"/>
  <line x1="300" y1="390" x2="325" y2="280" stroke="#333" stroke-width="2" stroke-dasharray="8,4"/>

  <!-- FI seal flush line -->
  <line x1="240" y1="338" x2="295" y2="350" stroke="#333" stroke-width="1.5" stroke-dasharray="4,3"/>

  <!-- TI bearing line -->
  <line x1="220" y1="286" x2="200" y2="270" stroke="#333" stroke-width="1.5"/>

  <!-- ATEX zone boundary -->
  <rect x="120" y="240" width="320" height="240" fill="none" stroke="#ff6600" stroke-width="1.5" stroke-dasharray="10,5" rx="8"/>
  <text x="130" y="258" font-size="9" fill="#ff6600" font-weight="bold">ZONE 1 — ATEX IIB T3</text>

  <!-- H2S HAZARD AREA marker -->
  <rect x="125" y="440" width="120" height="25" fill="#fff3cd" stroke="#856404" stroke-width="1" rx="3"/>
  <text x="185" y="457" text-anchor="middle" font-size="8" font-weight="bold" fill="#856404">⚠ H2S HAZARD AREA</text>

  <!-- Flow arrows -->
  <polygon points="108,295 100,303 92,295" fill="#333"/>
  <polygon points="268,278 276,286 268,294" fill="#333"/>
  <polygon points="488,278 480,286 472,278" fill="#333"/>

  <!-- Legend -->
  <rect x="20" y="490" width="260" height="110" fill="white" stroke="#333" stroke-width="1" rx="4"/>
  <text x="150" y="506" text-anchor="middle" font-size="10" font-weight="bold" fill="#333">LEGEND</text>
  <line x1="30" y1="515" x2="70" y2="515" stroke="#333" stroke-width="3"/>
  <text x="78" y="519" font-size="8" fill="#333">Process line</text>
  <line x1="30" y1="530" x2="70" y2="530" stroke="#333" stroke-width="2" stroke-dasharray="8,4"/>
  <text x="78" y="534" font-size="8" fill="#333">Standby line</text>
  <circle cx="50" cy="547" r="8" fill="white" stroke="#333" stroke-width="1.5"/>
  <text x="50" y="551" text-anchor="middle" font-size="7" font-weight="bold" fill="#333">PI</text>
  <text x="78" y="551" font-size="8" fill="#333">Instrument circle</text>
  <rect x="42" y="558" width="16" height="12" fill="#ffeeee" stroke="#cc0000" stroke-width="1"/>
  <text x="78" y="568" font-size="8" fill="#333">Gas detector</text>
  <rect x="30" y="575" width="260" height="1" fill="#ccc"/>
  <text x="150" y="588" text-anchor="middle" font-size="7" fill="#666">Equipment tags per ISA-5.1 standard</text>
  <text x="150" y="599" text-anchor="middle" font-size="7" fill="#666">All instruments loop tagged</text>

</svg>
